int melody[] = {
  NOTE_A4, 0, NOTE_A4, NOTE_A4,
  NOTE_C5, 0, NOTE_AS4, NOTE_A4, 
  NOTE_G4,0, NOTE_G4, NOTE_AS5,
  NOTE_A5, NOTE_AS5, NOTE_A5, NOTE_AS5,
  NOTE_G4,0, NOTE_G4, NOTE_AS5,
  NOTE_A5, NOTE_AS5, NOTE_A5, NOTE_AS5,
  NOTE_AS4, NOTE_AS4, NOTE_AS4, NOTE_AS4,
  NOTE_AS4, NOTE_AS4, NOTE_AS4, NOTE_AS4,
  NOTE_AS4, NOTE_AS4, NOTE_AS4, NOTE_AS4,
  NOTE_AS4, NOTE_AS4, NOTE_AS4, NOTE_AS4,
  NOTE_AS4, NOTE_AS4, NOTE_AS4, NOTE_AS4,
  NOTE_D5, NOTE_D5, NOTE_D5, NOTE_D5,
  NOTE_C5, NOTE_C5, NOTE_C5, NOTE_C5, 
  NOTE_F5, NOTE_F5, NOTE_F5, NOTE_F5, 
  NOTE_G5, NOTE_G5, NOTE_G5, NOTE_G5,
  NOTE_G5, NOTE_G5, NOTE_G5, NOTE_G5, 
  NOTE_G5, NOTE_G5, NOTE_G5, NOTE_G5, 
  NOTE_C5, NOTE_AS4, NOTE_A4, NOTE_F4,
  NOTE_G4, 0, NOTE_G4, NOTE_D5,
  NOTE_C5, 0, NOTE_AS4, 0,
  NOTE_A4, 0, NOTE_A4, NOTE_A4,
  NOTE_C5, 0, NOTE_AS4, NOTE_A4, 
  NOTE_G4,0, NOTE_G4, NOTE_AS5,
  NOTE_A5, NOTE_AS5, NOTE_A5, NOTE_AS5,
  NOTE_G4,0, NOTE_G4, NOTE_AS5,
  NOTE_A5, NOTE_AS5, NOTE_A5, NOTE_AS5,
  NOTE_G4, 0, NOTE_G4, NOTE_D5,
  NOTE_C5, 0, NOTE_AS4, 0,
  NOTE_A4, 0, NOTE_A4, NOTE_A4,
  NOTE_C5, 0, NOTE_AS4, NOTE_A4, 
  NOTE_G4,0, NOTE_G4, NOTE_AS5,
  NOTE_A5, NOTE_AS5, NOTE_A5, NOTE_AS5,
  NOTE_G4,0, NOTE_G4, NOTE_AS5,
  NOTE_A5, NOTE_AS5, NOTE_A5, NOTE_AS5
 };

void buzzer(){
  delay(5000);
  for (int thisNote = 0; thisNote < 112; thisNote++) {
    int noteDuration = 188;
    tone(7, melody[thisNote], noteDuration);
    int pauseBetweenNotes = noteDuration * 1.30;
    delay(pauseBetweenNotes);
    
    noTone(7);
  }
}
